<svg width="31" height="38" viewBox="0 0 31 38" fill="none" xmlns="http://www.w3.org/2000/svg">
<path fill-rule="evenodd" clip-rule="evenodd" d="M3.10897 4.17334L4.28623 2.76063L5.69894 0.72004C6.29597 0.140722 6.70161 -0.0568995 7.66105 0.0136829C8.78858 0.0951248 9.12783 0.313009 9.70163 0.72004L16.9222 7.23422L22.573 15.7105L23.3579 16.1814L23.8288 17.5941L28.2239 23.3235L30.5784 28.8174L29.7936 29.3667L28.8518 28.8174L28.2239 29.7592L27.5175 29.1313L27.0466 30.3086L26.2618 29.7592L25.32 28.1895L22.2591 20.812L21.4743 22.931L20.297 23.7159L19.0412 27.3262L19.9831 30.7795L22.2591 31.5643L23.3579 33.4479L22.573 35.6455L19.6691 37.3721L17.2361 37.6861H14.0183L12.6055 38L10.0156 37.0582L7.97498 36.1164L7.66105 35.2531L6.95469 34.4682L7.26862 33.134L9.46618 31.7998V27.8755L10.0156 26.7768V24.0298L9.07376 22.931V22.0677L7.66105 20.1056L8.28892 18.065L10.7219 18.6929L11.2713 16.7308L10.9574 15.8675L10.7219 15.2396L9.07376 14.0623L7.97498 12.1787L7.26862 10.2166V7.46968L6.48378 6.13545L5.385 4.95818H3.81532C3.08754 4.71534 2.83237 4.55766 3.10897 4.17334ZM17.1576 17.2802L16.8437 18.222L16.2943 18.6929L17.1576 20.2626L17.9425 20.498L18.5704 19.7917L19.5122 20.2626L20.14 19.2423L19.1982 18.222L17.1576 17.2802Z" fill="#0A0A0A" fill-opacity="0.84"/>
<path fill-rule="evenodd" clip-rule="evenodd" d="M0.108965 4.17334L1.28623 2.76063L2.69894 0.72004C3.29597 0.140722 3.70161 -0.0568995 4.66105 0.0136829C5.78858 0.0951248 6.12783 0.313009 6.70163 0.72004L13.9222 7.23422L19.573 15.7105L20.3579 16.1814L20.8288 17.5941L25.2239 23.3235L27.5784 28.8174L26.7936 29.3667L25.8518 28.8174L25.2239 29.7592L24.5175 29.1313L24.0466 30.3086L23.2618 29.7592L22.32 28.1895L19.2591 20.812L18.4743 22.931L17.297 23.7159L16.0412 27.3262L16.9831 30.7795L19.2591 31.5643L20.3579 33.4479L19.573 35.6455L16.6691 37.3721L14.2361 37.6861H11.0183L9.60554 38L7.01557 37.0582L4.97498 36.1164L4.66105 35.2531L3.95469 34.4682L4.26862 33.134L6.46618 31.7998V27.8755L7.01557 26.7768V24.0298L6.07376 22.931V22.0677L4.66105 20.1056L5.28892 18.065L7.72193 18.6929L8.27131 16.7308L7.95738 15.8675L7.72193 15.2396L6.07376 14.0623L4.97498 12.1787L4.26862 10.2166V7.46968L3.48378 6.13545L2.385 4.95818H0.815322C0.0875447 4.71534 -0.16763 4.55766 0.108965 4.17334ZM14.1576 17.2802L13.8437 18.222L13.2943 18.6929L14.1576 20.2626L14.9425 20.498L15.5704 19.7917L16.5122 20.2626L17.14 19.2423L16.1982 18.222L14.1576 17.2802Z" fill="#E53820"/>
</svg>
